<?xml version="1.0" encoding="utf-8"?>
<!-- Generator: Adobe Adobe Illustrator 24.2.0, SVG Export Plug-In . SVG Version: 6.00 Build 0)  -->
<svg version="1.1" id="Layer_1" xmlns="http://www.w3.org/2000/svg" xmlns:xlink="http://www.w3.org/1999/xlink" x="0px" y="0px"
	 width="218px" height="206px" viewBox="0 0 218 206" style="enable-background:new 0 0 218 206;" xml:space="preserve">
<style type="text/css">
	.st0{fill:#FFFFFF;}
</style>
<g>
	<g>
		<g>
			<path class="st0" d="M112.46,193.75c-4.09-4.21-8.2-8.31-12.17-12.54c-19.45-20.76-36.18-43.56-50.24-68.28
				c-15.16-26.66-26.7-54.82-34.59-84.47c-0.33-1.23-0.04-1.6,1.11-1.9c13.97-3.76,28.09-6.81,42.41-8.86
				c5.08-0.72,10.19-1.23,15.26-1.97c1.16-0.17,1.41,0.29,1.68,1.18c4.11,13.44,9.13,26.53,14.93,39.33
				c6.77,14.95,14.6,29.32,23.48,43.12c10.83,16.83,23.02,32.61,36.7,47.22c1.02,1.09,1.06,1.75,0.17,2.94
				c-11.49,15.43-24.04,29.93-37.79,43.38C113.15,193.17,112.87,193.39,112.46,193.75z M46.47,44.84
				c8.89,25.65,20.64,49.65,35.35,72.54c2.99-3.15,5.8-6.12,8.69-9.17C77.64,87.6,66.82,65.73,58.37,42.63
				C54.38,43.37,50.53,44.09,46.47,44.84z M104.31,129c-2.69,2.99-5.32,5.92-8.18,9.1c5.29,6.46,10.87,13.29,16.57,20.25
				c2.75-3.2,5.2-6.07,7.61-8.87C115,142.69,109.81,136.04,104.31,129z"/>
			<g>
				<path class="st0" d="M156.38,96.28c2.15-4.2,4.13-8,6.01-11.85c0.19-0.39-0.14-1.16-0.43-1.63c-2.69-4.31-5.44-8.58-8.11-12.91
					c-0.27-0.44-0.32-1.31-0.07-1.74c4.47-7.65,9.01-15.27,13.54-22.89c0.13-0.22,0.29-0.42,0.45-0.65
					c2.38,4.08,4.58,8.21,7.09,12.13c4.93,7.68,10.02,15.26,15.12,22.83c0.73,1.08,0.9,1.87,0.36,3.06
					c-8.39,18.5-18.14,36.24-29.47,53.1c-0.69,1.03-1.39,2.06-2.25,3.33c-31.88-36.82-55.61-78.1-70.89-124.43
					c3.26-0.21,6.3-0.47,9.35-0.58c5.03-0.17,10.07-0.19,15.1-0.37c1.21-0.04,1.71,0.37,2.1,1.47
					c8.59,24.12,19.85,46.93,33.69,68.47C150.64,87.77,153.42,91.83,156.38,96.28z"/>
			</g>
			<path class="st0" d="M168.25,17.96c4.06,0.69,7.85,1.19,11.57,2.01c9.5,2.1,18.97,4.36,28.45,6.51c1.3,0.3,1.55,0.78,1.19,2.12
				c-3.42,12.82-7.58,25.39-12.38,37.76c-0.13,0.33-0.29,0.65-0.57,1.28C185.6,51.87,176.31,35.45,168.25,17.96z"/>
		</g>
	</g>
</g>
</svg>
